<svg xmlns="http://www.w3.org/2000/svg" xmlns:xlink="http://www.w3.org/1999/xlink" fill="none" version="1.1" width="256" height="256" viewBox="0 0 256 256"><defs><clipPath id="master_svg0_99_0"><rect x="0" y="0" width="256" height="256" rx="0"/></clipPath></defs><g clip-path="url(#master_svg0_99_0)"><rect x="0" y="0" width="256" height="256" rx="0" fill="#FFFFFF" fill-opacity="1"/><g><path d="M139.2362,165.357Q139.87220000000002,177.157,125.0881,194.35C123.1382,196.618,122.0659,199.509,122.0659,202.5C122.0659,202.813,122.0777,203.127,122.1012,203.439C122.3503,206.745,123.9023,209.816,126.416,211.978C128.6836,213.928,131.5752,215,134.5659,215C134.57819999999998,215,134.59050000000002,215,134.6028,215C134.9038,214.999,135.2047,214.987,135.50490000000002,214.965C138.8108,214.716,141.8823,213.164,144.0437,210.65Q147.9429,206.115,150.9956,201.861Q154.8871,196.438,157.62040000000002,191.184Q164.9094,177.174,164.2,164.011Q163.76479999999998,155.936,160.33620000000002,148.512Q156.7799,140.812,150.1042,134.075Q143.445,127.355,133.65890000000002,121.594Q123.7507,115.761,110.50999999999999,110.8356Q105.0153,108.7916,100.9815,106.7135Q97.469,104.9039,95.2452,103.1696Q93.9302,102.14410000000001,93.2623,101.3214Q93.4059,101.07849999999999,93.6003,100.8021Q94.4992,99.5239,96.1511,97.9898Q98.0378,96.2376,100.7304,94.33Q111.1722,86.93260000000001,132.276,78.1961Q140.72719999999998,74.6976,151.38,70.7887Q158.64339999999999,68.1235,169.608,64.3129Q169.611,64.312,169.613,64.311Q169.619,64.3091,169.624,64.3073C172.756,63.219,175.326,60.9313,176.77100000000002,57.947500000000005C177.59300000000002,56.2492,178.02100000000002,54.3869,178.02100000000002,52.5C178.02100000000002,52.432,178.01999999999998,52.3639,178.019,52.2959C177.997,50.9677,177.764,49.65142,177.328,48.39664C175.58100000000002,43.36967,170.84300000000002,40.0000305176,165.5207,40C165.4919,40,165.4632,40.0000991821,165.4345,40.000297546C164.06650000000002,40.00972939,162.70940000000002,40.243641,161.4173,40.692701Q150.2387,44.57755,142.768,47.31882Q131.6362,51.4035,122.7137,55.0972Q111.763,59.6305,103.283,63.9193Q93.2399,68.9987,86.2784,73.9305Q65.38753,88.73060000000001,68.373396,105.5025Q69.2974,110.6927,72.53942,115.336Q75.34424,119.3532,79.8711,122.8835Q87.7864,129.0563,101.7938,134.26690000000002Q112.9679,138.4236,120.976,143.138Q127.9688,147.255,132.34640000000002,151.672Q135.92700000000002,155.285,137.6397,158.994Q139.0589,162.067,139.2362,165.357Z" fill-rule="evenodd" fill="#000000" fill-opacity="1"/></g></g></svg>